<?xml version="1.0" encoding="UTF-8"?>
<svg width="170px" height="48px" viewBox="0 0 170 48" version="1.1" xmlns="http://www.w3.org/2000/svg" xmlns:xlink="http://www.w3.org/1999/xlink">
    <!-- Generator: sketchtool 48.2 (47327) - http://www.bohemiancoding.com/sketch -->
    <title>DF92A3E0-78BE-4FBD-9A1C-7AA12E8E6067</title>
    <desc>Created with sketchtool.</desc>
    <defs>
        <linearGradient x1="0.0199209932%" y1="50.0083498%" x2="100.048476%" y2="50.0083498%" id="linearGradient-1">
            <stop stop-color="#EB7229" offset="0%"></stop>
            <stop stop-color="#FBC02C" offset="100%"></stop>
        </linearGradient>
        <linearGradient x1="95.9087671%" y1="49.9963122%" x2="-7.13157534%" y2="49.9963122%" id="linearGradient-2">
            <stop stop-color="#FFFFFF" offset="0%"></stop>
            <stop stop-color="#FFFFFF" stop-opacity="0.9552" offset="8.962709%"></stop>
            <stop stop-color="#FFFFFF" stop-opacity="0.5" offset="100%"></stop>
        </linearGradient>
        <linearGradient x1="-0.0502339672%" y1="49.978536%" x2="99.9910103%" y2="49.978536%" id="linearGradient-3">
            <stop stop-color="#FFFFFF" offset="0%"></stop>
            <stop stop-color="#FFFFFF" stop-opacity="0.9552" offset="8.962709%"></stop>
            <stop stop-color="#FFFFFF" stop-opacity="0.5" offset="100%"></stop>
        </linearGradient>
    </defs>
    <g id="00---Bar" stroke="none" stroke-width="1" fill="none" fill-rule="evenodd" transform="translate(-24.000000, -19.000000)">
        <g id="Group-4">
            <g transform="translate(24.000000, 19.000000)">
                <g id="Group-10">
                    <g id="Group-7">
                        <g id="Trainerizer_-_Logo_Sticker_FINAL">
                            <polyline id="Fill-2" fill="#0A0B09" points="10.8522605 38.1128357 7.91641791 47.2222222 14.8179104 39.8880526 10.8522605 38.1128357"></polyline>
                            <g id="Layer_1" fill-rule="nonzero">
                                <ellipse id="Oval" fill="#0C0C0D" cx="20.359403" cy="21.0667652" rx="20.3492537" ry="20.9830007"></ellipse>
                                <g id="Group" transform="translate(2.537313, 2.408229)">
                                    <path d="M21.800597,16.8366593 C25.1498507,17.6638335 28.6208955,17.9674797 31.8077612,17.9988914 C31.7570149,17.3287756 31.6555224,16.6796009 31.5134328,16.0513673 C28.5904478,15.6116038 25.921194,15.014782 23.5056716,14.3132545 C22.358806,13.9781966 21.2626866,13.611727 20.2274627,13.2347869 C15.6197015,11.5490269 12.1385075,9.52820892 9.6519403,7.76915496 C9.17492537,8.1460951 8.7080597,8.54397635 8.28179104,8.97326928 C9.17492537,9.94703129 10.1289552,10.8579699 11.1438806,11.6956147 C11.9558209,12.3657305 12.8185075,12.993964 13.7014925,13.5489037 C14.8889552,14.3027839 16.1271642,14.9938408 17.4465672,15.4859571 C17.6191045,15.5487805 17.8728358,15.6639566 18.1773134,15.7686622 L11.0728358,24.5534614 L16.0358209,24.5534614 L7.71343284,41.2958857 C7.71343284,41.2958857 7.67283582,41.358709 7.68298507,41.3796502 C7.69313433,41.3901207 7.75402985,41.2958857 7.75402985,41.2958857 L24.9265672,20.2081794 L19.5271642,20.2081794 L21.800597,16.8366593 Z" id="Shape" fill="#1D1D1B" opacity="0.75"></path>
                                    <path d="M24.3277612,7.0152747 C24.0638806,7.09903917 22.0035821,11.7165558 22.0035821,11.7165558 C22.0949254,11.9783198 24.7743284,12.7845528 25.0483582,12.7845528 C25.3122388,12.7845528 27.1898507,9.86326681 27.1086567,9.41303277 C27.0071642,8.97326928 24.5916418,6.93151022 24.3277612,7.0152747 Z" id="Shape" fill="#1D1D1B" opacity="0.75"></path>
                                    <path d="M25.038209,12.2400838 C25.3020896,12.2400838 27.1797015,9.31879773 27.0985075,8.86856369 C27.0071642,8.4288002 24.5916418,6.38704114 24.3277612,6.47080562 C24.0638806,6.55457009 22.0035821,11.1720867 22.0035821,11.1720867 C22.0847761,11.4443213 24.7743284,12.2400838 25.038209,12.2400838 Z" id="Shape" fill="#FFFFFF"></path>
                                    <path d="M21.800597,16.2921902 C25.1498507,17.1193644 28.6208955,17.4230106 31.8077612,17.4544223 C31.7570149,16.794777 31.6555224,16.1351318 31.5134328,15.5068983 C28.5904478,15.0671348 25.921194,14.4703129 23.5056716,13.7687854 C22.358806,13.4337275 21.2626866,13.0672579 20.2274627,12.6903178 C15.6197015,11.0045578 12.1385075,8.98373984 9.6519403,7.22468588 C9.17492537,7.60162602 8.7080597,7.99950727 8.28179104,8.4288002 C9.17492537,9.40256221 10.1289552,10.3135009 11.1438806,11.1511456 C11.9558209,11.8212614 12.8185075,12.4494949 13.7014925,13.0149051 C14.8889552,13.7687854 16.1271642,14.4598423 17.4465672,14.9519586 C17.6191045,15.014782 17.8728358,15.1299581 18.1773134,15.2241932 L11.0728358,24.0089924 L16.0358209,24.0089924 L7.71343284,40.7514166 C7.71343284,40.7514166 7.67283582,40.8247105 7.68298507,40.8351811 C7.69313433,40.8456516 7.75402985,40.7514166 7.75402985,40.7514166 L24.9265672,19.6532397 L19.5271642,19.6532397 L21.800597,16.2921902 Z" id="Shape" fill="#FFFFFF"></path>
                                    <path d="M18.0047761,0.0732939148 C8.06865672,0.0732939148 0.0101492537,8.3764474 0.0101492537,18.6271249 C0.0101492537,25.4958118 3.63343284,31.4954422 9.01253731,34.6994334 L10.1086567,32.5006159 C5.50089552,29.7049766 2.40537313,24.5325203 2.40537313,18.6271249 C2.40537313,9.7376201 9.3880597,2.53387534 18.0047761,2.53387534 C26.6214925,2.53387534 33.6041791,9.7376201 33.6041791,18.6271249 C33.6041791,27.5166297 26.6214925,34.7203745 18.0047761,34.7203745 C16.918806,34.7203745 15.8531343,34.6051983 14.8280597,34.3853166 L13.1128358,36.489899 C14.6656716,36.940133 16.2997015,37.1914265 17.9946269,37.1914265 C27.9307463,37.1914265 35.9791045,28.8778024 35.9791045,18.6271249 C35.9791045,8.3764474 27.9408955,0.0732939148 18.0047761,0.0732939148 Z" id="Shape" fill="url(#linearGradient-1)"></path>
                                    <g opacity="0.25" fill="#EDEDED" id="Shape">
                                        <path d="M18.0047761,0.335057896 C27.9002985,0.335057896 35.918209,8.57538803 35.9892537,18.7632422 C35.9892537,18.7213599 35.9892537,18.6794777 35.9892537,18.6271249 C35.9892537,8.3764474 27.9307463,0.0732939148 18.0047761,0.0732939148 C8.06865672,0.0732939148 0.0101492537,8.3764474 0.0101492537,18.6271249 C0.0101492537,18.6794777 0.0101492537,18.7318305 0.0101492537,18.7841833 C0.0710447761,8.58585859 8.10925373,0.335057896 18.0047761,0.335057896 Z"></path>
                                        <path d="M2.41552239,18.7946539 C2.41552239,18.8260655 2.41552239,18.8679478 2.41552239,18.8993594 C2.41552239,24.7733432 5.46029851,29.9039172 10.0173134,32.7100271 L10.118806,32.5110865 C5.54149254,29.7363883 2.46626866,24.6372259 2.41552239,18.7946539 Z"></path>
                                        <path d="M18.0047761,34.992609 C26.6214925,34.992609 33.6041791,27.7888643 33.6041791,18.8993594 C33.6041791,18.8574772 33.6041791,18.815595 33.6041791,18.7632422 C33.5331343,27.5899236 26.5808955,34.7203745 18.0047761,34.7203745 C16.918806,34.7203745 15.8531343,34.6051983 14.8280597,34.3853166 L13.1128358,36.489899 C13.1737313,36.5108401 13.2244776,36.5213107 13.2853731,36.5317812 L14.8179104,34.6470806 C15.8531343,34.8774329 16.918806,34.992609 18.0047761,34.992609 Z"></path>
                                    </g>
                                    <path d="M17.9844776,0.13611727 C13.4883582,0.13611727 9.37791045,1.84281843 6.23164179,4.65939887 C6.43462687,5.46563193 6.75940299,6.25092387 7.17552239,7.0152747 C9.98686567,4.2405765 13.7928358,2.53387534 17.9844776,2.53387534 C26.1343284,2.53387534 32.8226866,8.96279872 33.5534328,17.1717172 C34.3349254,17.1298349 35.1062687,17.056541 35.8674627,16.962306 C35.0352239,7.5283321 27.3522388,0.13611727 17.9844776,0.13611727 Z" id="Shape" fill="url(#linearGradient-2)" opacity="0.25"></path>
                                    <g opacity="0.5" transform="translate(0.000000, 2.512934)" fill="#1D1D1B" id="Shape">
                                        <path d="M9.01253731,32.1969697 C3.67402985,29.0139197 0.0710447761,23.0875831 0.0202985075,16.2817196 C0.0202985075,16.3131313 0.0202985075,16.3550136 0.0202985075,16.3864252 C0.0202985075,23.2551121 3.64358209,29.2547425 9.02268657,32.4587337 L10.118806,30.2599162 C10.0883582,30.2389751 10.0477612,30.218034 10.0173134,30.1970929 L9.01253731,32.1969697 Z"></path>
                                        <path d="M18.0047761,0.0314116778 C9.3880597,0.0314116778 2.40537313,7.23515644 2.40537313,16.1246612 C2.40537313,16.177014 2.40537313,16.2293668 2.40537313,16.2817196 C2.4561194,7.44456763 9.41850746,0.293175659 18.0047761,0.293175659 C26.5808955,0.293175659 33.5331343,7.42362651 33.6041791,16.2607785 C33.6041791,16.2188963 33.6041791,16.177014 33.6041791,16.1246612 C33.6041791,7.23515644 26.6214925,0.0314116778 18.0047761,0.0314116778 Z"></path>
                                        <path d="M18.0047761,34.6784922 C16.3707463,34.6784922 14.7976119,34.4481399 13.2955224,34.0293176 L13.1229851,34.2491993 C14.6758209,34.6994334 16.3098507,34.9507268 18.0047761,34.9507268 C27.9408955,34.9507268 35.9892537,26.6371027 35.9892537,16.3968958 C35.9892537,16.3550136 35.9892537,16.3131313 35.9892537,16.2607785 C35.9283582,26.4381621 27.9002985,34.6784922 18.0047761,34.6784922 Z"></path>
                                    </g>
                                    <path d="M7.75402985,40.7618872 L8.34268657,40.0394186 L16.0358209,24.563932 L15.761791,24.563932 L7.71343284,40.7618872 C7.71343284,40.7618872 7.67283582,40.8351811 7.68298507,40.8456516 C7.69313433,40.8561222 7.75402985,40.7618872 7.75402985,40.7618872 Z" id="Shape" fill="url(#linearGradient-3)" opacity="0.1"></path>
                                </g>
                            </g>
                        </g>
                    </g>
                    <g id="Group-8" transform="translate(44.453731, 14.868194)" fill="#000000">
                        <polyline id="Fill-3" points="4.22848337 3.04239249 0 3.04239249 0 0.113703729 11.5129766 0.113703729 11.5129766 3.04239249 7.28523624 3.04239249 7.28523624 14.5540774 4.22848337 14.5540774 4.22848337 3.04239249"></polyline>
                        <path d="M20.1046977,7.12695973 C21.60013,7.12695973 22.457541,6.30232498 22.457541,5.08467611 L22.457541,5.04375322 C22.457541,3.68248819 21.5404321,2.9806221 20.0449998,2.9806221 L16.9944374,2.9806221 L16.9944374,7.12695973 L20.1046977,7.12695973 Z M13.9252193,0.113703729 L20.3039395,0.113703729 C22.0784594,0.113703729 23.4544959,0.629486511 24.3716048,1.57843417 C25.1491699,2.38299354 25.5670552,3.51725239 25.5670552,4.87851742 L25.5670552,4.92021244 C25.5670552,7.25050051 24.3514568,8.71523096 22.5769368,9.39624954 L25.9864329,14.5540774 L22.3970969,14.5540774 L19.4069786,9.9321077 L16.9944374,9.9321077 L16.9944374,14.5540774 L13.9252193,14.5540774 L13.9252193,0.113703729 Z" id="Fill-4"></path>
                        <path d="M36.2990297,8.50558949 L34.4441561,3.81932493 L32.5885359,8.50558949 L36.2990297,8.50558949 Z M33.0679356,0 L35.9010234,0 L41.8853054,14.5540774 L38.6736262,14.5540774 L37.3974672,11.3119395 L31.4915918,11.3119395 L30.2154328,14.5540774 L27.0829069,14.5540774 L33.0679356,0 Z" id="Fill-5"></path>
                        <polygon id="Fill-6" points="44.1879007 14.5540774 47.2580278 14.5540774 47.2580278 0.113703729 44.1879007 0.113703729"></polygon>
                        <polyline id="Fill-7" points="50.657097 0.113703729 53.4852767 0.113703729 60.019244 9.00400755 60.019244 0.113703729 63.0472528 0.113703729 63.0472528 14.5540774 60.4375432 14.5540774 53.6843602 5.37422483 53.6843602 14.5540774 50.657097 14.5540774 50.657097 0.113703729"></polyline>
                        <polyline id="Fill-8" points="66.4463221 0.113703729 76.9827824 0.113703729 76.9827824 2.93969921 69.4988856 2.93969921 69.4988856 5.8691601 76.0842666 5.8691601 76.0842666 8.69515558 69.4988856 8.69515558 69.4988856 11.7273097 77.0821195 11.7273097 77.0821195 14.5540774 66.4463221 14.5540774 66.4463221 0.113703729"></polyline>
                        <path d="M85.8938817,7.12695973 C87.389314,7.12695973 88.2459788,6.30232498 88.2459788,5.08467611 L88.2459788,5.04375322 C88.2459788,3.68248819 87.3296161,2.9806221 85.8341838,2.9806221 L82.7843675,2.9806221 L82.7843675,7.12695973 L85.8938817,7.12695973 Z M79.713657,0.113703729 L86.0938696,0.113703729 C87.8676434,0.113703729 89.2429336,0.629486511 90.1600425,1.57843417 C90.9376076,2.38299354 91.3569854,3.51725239 91.3569854,4.87851742 L91.3569854,4.92021244 C91.3569854,7.25050051 90.1398945,8.71523096 88.3653746,9.39624954 L91.7748706,14.5540774 L88.1870271,14.5540774 L85.1961625,9.9321077 L82.7843675,9.9321077 L82.7843675,14.5540774 L79.713657,14.5540774 L79.713657,0.113703729 Z" id="Fill-9"></path>
                        <polygon id="Fill-10" points="94.2967607 14.5540774 97.3668878 14.5540774 97.3668878 0.113703729 94.2967607 0.113703729"></polygon>
                        <polyline id="Fill-11" points="100.437015 12.1403993 108.112051 2.89877632 100.676557 2.89877632 100.676557 0.113703729 112.059639 0.113703729 112.059639 2.52738184 104.384603 11.7682326 112.059639 11.7682326 112.059639 14.5540774 100.437015 14.5540774 100.437015 12.1403993"></polyline>
                        <polyline id="Fill-12" points="114.910471 0.113703729 125.446178 0.113703729 125.446178 2.93969921 117.963996 2.93969921 117.963996 5.8691601 124.549093 5.8691601 124.549093 8.69515558 117.963996 8.69515558 117.963996 11.7273097 125.546269 11.7273097 125.546269 14.5540774 114.910471 14.5540774 114.910471 0.113703729"></polyline>
                    </g>
                </g>
            </g>
        </g>
    </g>
</svg>